SRRun01_grf
version=1
nRows=15
nColumns=19
inDegrees=no
endheader
time	ground_force_r_vx	ground_force_r_vy	ground_force_r_vz	ground_force_r_px	ground_force_r_py	ground_force_r_pz	ground_force_r_mx	ground_force_r_my	ground_force_r_mz	ground_force_l_vx	ground_force_l_vy	ground_force_l_vz	ground_force_l_px	ground_force_l_py	ground_force_l_pz	ground_force_l_mx	ground_force_l_my	ground_force_l_mz
    139.99600000	      0.00000000	      0.00000000	      0.00000000	      0.00000000	      0.00000000	      0.00000000	      0.00000000	      0.00000000	      0.00000000	    -87.63805004	   1335.43941443	     67.88731548	      0.78463326	      0.00000000	     -1.12205398	      0.00006512	      7.72164637	      0.00007298
    139.99700000	      0.00000000	      0.00000000	      0.00000000	      0.00000000	      0.00000000	      0.00000000	      0.00000000	      0.00000000	      0.00000000	    -90.58049006	   1371.58790414	    105.35655012	      0.78625079	      0.00000000	     -1.12200935	      0.00007115	     -3.68847196	      0.00007140
    139.99800000	      0.00000000	      0.00000000	      0.00000000	      0.00000000	      0.00000000	      0.00000000	      0.00000000	      0.00000000	      0.00000000	    -92.62952991	   1407.38939443	    141.36634826	      0.78792689	      0.00000000	     -1.12174848	      0.00007674	    -13.60689787	      0.00006983
    139.99900000	      0.00000000	      0.00000000	      0.00000000	      0.00000000	      0.00000000	      0.00000000	      0.00000000	      0.00000000	      0.00000000	    -93.34484142	   1442.04131435	    174.68779797	      0.78964724	      0.00000000	     -1.12123941	      0.00008177	    -21.39998227	      0.00006832
    140.00000000	      0.00000000	      0.00000000	      0.00000000	      0.00000000	      0.00000000	      0.00000000	      0.00000000	      0.00000000	      0.00000000	    -92.31783094	   1474.86798252	    204.23512840	      0.79140049	      0.00000000	     -1.12045085	      0.00008620	    -26.56351807	      0.00006697
    140.00100000	      0.00000000	      0.00000000	      0.00000000	      0.00000000	      0.00000000	      0.00000000	      0.00000000	      0.00000000	      0.00000000	    -89.21014522	   1505.35789379	    229.13815086	      0.79317753	      0.00000000	     -1.11935564	      0.00008999	    -28.77392222	      0.00006584
    140.00200000	      0.00000000	      0.00000000	      0.00000000	      0.00000000	      0.00000000	      0.00000000	      0.00000000	      0.00000000	      0.00000000	    -83.79055328	   1533.18325995	    248.79745792	      0.79496975	      0.00000000	     -1.11793563	      0.00009316	    -27.92456063	      0.00006502
    140.00300000	      0.00000000	      0.00000000	      0.00000000	      0.00000000	      0.00000000	      0.00000000	      0.00000000	      0.00000000	      0.00000000	    -75.96681787	   1558.20167838	    262.91861932	      0.79676697	      0.00000000	     -1.11618701	      0.00009578	    -24.14296324	      0.00006459
    140.00400000	      0.00000000	      0.00000000	      0.00000000	      0.00000000	      0.00000000	      0.00000000	      0.00000000	      0.00000000	      0.00000000	    -65.80934863	   1580.44236543	    271.52353593	      0.79855516	      0.00000000	     -1.11412411	      0.00009793	    -17.78669298	      0.00006458
    140.00500000	      0.00000000	      0.00000000	      0.00000000	      0.00000000	      0.00000000	      0.00000000	      0.00000000	      0.00000000	      0.00000000	    -53.56400774	   1600.08104206	    274.93876938	      0.80031492	      0.00000000	     -1.11178075	      0.00009971	     -9.41788196	      0.00006503
    140.00600000	      0.00000000	      0.00000000	      0.00000000	      0.00000000	      0.00000000	      0.00000000	      0.00000000	      0.00000000	      0.00000000	    -39.65225126	   1617.40806099	    273.76215939	      0.80202075	      0.00000000	     -1.10920815	      0.00010124	      0.24138400	      0.00006589
    140.00700000	      0.00000000	      0.00000000	      0.00000000	      0.00000000	      0.00000000	      0.00000000	      0.00000000	      0.00000000	      0.00000000	    -24.65768213	   1632.79395303	    268.81047071	      0.80364165	      0.00000000	     -1.10646960	      0.00010260	     10.36875366	      0.00006712
    140.00800000	      0.00000000	      0.00000000	      0.00000000	      0.00000000	      0.00000000	      0.00000000	      0.00000000	      0.00000000	      0.00000000	     -9.29907177	   1646.65561444	    261.05212113	      0.80514299	      0.00000000	     -1.10363272	      0.00010389	     20.11080548	      0.00006859
    140.00900000	      0.00000000	      0.00000000	      0.00000000	      0.00000000	      0.00000000	      0.00000000	      0.00000000	      0.00000000	      0.00000000	      5.60894283	   1659.42523515	    251.53011293	      0.80648931	      0.00000000	     -1.10076093	      0.00010513	     28.65528279	      0.00007017
    140.01000000	      0.00000000	      0.00000000	      0.00000000	      0.00000000	      0.00000000	      0.00000000	      0.00000000	      0.00000000	      0.00000000	     19.20502219	   1671.52315579	    241.28108528	      0.80764771	      0.00000000	     -1.09790576	      0.00010633	     35.29969977	      0.00007168
